<svg id="Layer_1" data-name="Layer 1" xmlns="http://www.w3.org/2000/svg" xmlns:xlink="http://www.w3.org/1999/xlink" viewBox="0 0 260.38 298.28"><defs><style>.cls-1,.cls-3{fill:#fff;}.cls-1,.cls-11,.cls-13,.cls-2,.cls-20,.cls-4,.cls-9{stroke:#fff;stroke-miterlimit:10;}.cls-11,.cls-13,.cls-2,.cls-20,.cls-4,.cls-9{fill:none;}.cls-10,.cls-11,.cls-12,.cls-13,.cls-15,.cls-20,.cls-3,.cls-4,.cls-5,.cls-6,.cls-9{isolation:isolate;}.cls-3,.cls-4{font-size:80px;font-family:AcmeGothic-CompressedBold, Acme Gothic Compressed;font-weight:700;letter-spacing:0.04em;}.cls-10,.cls-11,.cls-12,.cls-13,.cls-6,.cls-9{font-size:14px;font-family:ApparatExtraCond-Hairline, ApparatExtraCond;font-weight:100;}.cls-7{letter-spacing:0em;}.cls-8{letter-spacing:-0.06em;}.cls-10,.cls-11{letter-spacing:2.79em;}.cls-12,.cls-13{letter-spacing:4.64em;}.cls-14{letter-spacing:0em;}.cls-15,.cls-20{font-size:10px;font-family:CorbelLight, Corbel;letter-spacing:0.1em;}.cls-16{letter-spacing:0.03em;}.cls-17{letter-spacing:0.1em;}.cls-18{letter-spacing:0.07em;}.cls-19{letter-spacing:0.06em;}</style></defs><path class="cls-1" d="M374.5,348.5" transform="translate(-353.18 -110.22)"/><path class="cls-2" d="M374.5,348.5a129.59,129.59,0,0,0,218,0" transform="translate(-353.18 -110.22)"/><path class="cls-2" d="M423.2,163.8C376,188,347,242,355,294.7" transform="translate(-353.18 -110.22)"/><path class="cls-2" d="M612,294.7c3-22-.5-44.5-9-64.9a134.61,134.61,0,0,0-39.4-52.9,123.73,123.73,0,0,0-32.6-19" transform="translate(-353.18 -110.22)"/><path class="cls-2" d="M404.8,192.6c-23.4,21.3-36.7,52.2-37.8,84.6" transform="translate(-353.18 -110.22)"/><path class="cls-2" d="M600,276.1A118.69,118.69,0,0,0,576.5,208a103.78,103.78,0,0,0-14.2-15.4" transform="translate(-353.18 -110.22)"/><path class="cls-1" d="M396.4,355.8" transform="translate(-353.18 -110.22)"/><path class="cls-2" d="M396.4,355.8a116.59,116.59,0,0,0,174.4,0" transform="translate(-353.18 -110.22)"/><text class="cls-3" transform="translate(60.34 221.56)">Lucia</text><text class="cls-4" transform="translate(43.22 221.56)">Lucia</text><image class="cls-5" width="1695" height="2533" transform="translate(76.05) scale(0.05 0.05)" xlink:href="735BC573.png"/><text class="cls-6" transform="translate(87.98 119.27)"><tspan class="cls-7">E</tspan><tspan x="4.61" y="0">S</tspan><tspan class="cls-8" x="9.09" y="0">T</tspan><tspan x="13.02" y="0">.</tspan></text><text class="cls-9" transform="translate(87.98 119.27)"><tspan class="cls-7">E</tspan><tspan x="4.61" y="0">S</tspan><tspan class="cls-8" x="9.09" y="0">T</tspan><tspan x="13.02" y="0">.</tspan></text><text class="cls-10" transform="translate(101.73 119.27)"> </text><text class="cls-11" transform="translate(101.73 119.27)"> </text><text class="cls-12" transform="translate(123.98 119.27)"> </text><text class="cls-13" transform="translate(123.98 119.27)"> </text><text class="cls-6" transform="translate(159.98 119.27)">19<tspan class="cls-14" x="7.35" y="0">9</tspan><tspan x="11.91" y="0">7</tspan></text><text class="cls-9" transform="translate(159.98 119.27)">19<tspan class="cls-14" x="7.35" y="0">9</tspan><tspan x="11.91" y="0">7</tspan></text><text class="cls-15" transform="translate(88.98 253.27)">Nappa<tspan class="cls-16" x="31.53" y="0"> </tspan><tspan x="33.8" y="0">Vall</tspan><tspan class="cls-17" x="52.6" y="0">e</tspan><tspan class="cls-18" x="58.39" y="0">y</tspan><tspan x="63.53" y="0">,</tspan><tspan class="cls-19" x="66.75" y="0"> </tspan><tspan x="69.31" y="0">CA</tspan></text><text class="cls-20" transform="translate(88.98 253.27)">Nappa<tspan class="cls-16" x="31.53" y="0"> </tspan><tspan x="33.8" y="0">Vall</tspan><tspan class="cls-17" x="52.6" y="0">e</tspan><tspan class="cls-18" x="58.39" y="0">y</tspan><tspan x="63.53" y="0">,</tspan><tspan class="cls-19" x="66.75" y="0"> </tspan><tspan x="69.31" y="0">CA</tspan></text></svg>